<?xml version="1.0" encoding="UTF-8" standalone="no"?>
<!-- Created with Inkscape (http://www.inkscape.org/) -->

<svg
   xmlns:dc="http://purl.org/dc/elements/1.1/"
   xmlns:cc="http://creativecommons.org/ns#"
   xmlns:rdf="http://www.w3.org/1999/02/22-rdf-syntax-ns#"
   xmlns:svg="http://www.w3.org/2000/svg"
   xmlns="http://www.w3.org/2000/svg"
   xmlns:xlink="http://www.w3.org/1999/xlink"
   xmlns:sodipodi="http://sodipodi.sourceforge.net/DTD/sodipodi-0.dtd"
   xmlns:inkscape="http://www.inkscape.org/namespaces/inkscape"
   width="512"
   height="512"
   id="svg16099"
   version="1.1"
   inkscape:version="0.48.4 r9939"
   sodipodi:docname="iconsheet.svg"
   inkscape:export-filename="C:\dev\allshape\src\datafiles\iconsheet16.png"
   inkscape:export-xdpi="45"
   inkscape:export-ydpi="45">
  <defs
     id="defs16101">
    <inkscape:path-effect
       effect="spiro"
       id="path-effect5012"
       is_visible="true" />
    <inkscape:path-effect
       effect="spiro"
       id="path-effect5008"
       is_visible="true" />
    <inkscape:path-effect
       effect="spiro"
       id="path-effect4108"
       is_visible="true" />
    <inkscape:path-effect
       effect="spiro"
       id="path-effect3264"
       is_visible="true" />
    <inkscape:path-effect
       effect="spiro"
       id="path-effect5465"
       is_visible="true" />
    <inkscape:path-effect
       effect="spiro"
       id="path-effect4613"
       is_visible="true" />
    <inkscape:path-effect
       effect="spiro"
       id="path-effect4609"
       is_visible="true" />
    <linearGradient
       id="linearGradient5609">
      <stop
         id="stop5611"
         offset="0"
         style="stop-color:#0089e6;stop-opacity:1;" />
      <stop
         style="stop-color:#1280f4;stop-opacity:1;"
         offset="0.52777779"
         id="stop5613" />
      <stop
         id="stop5615"
         offset="1"
         style="stop-color:#d4eefc;stop-opacity:1;" />
    </linearGradient>
    <linearGradient
       id="linearGradient5481">
      <stop
         style="stop-color:#e66700;stop-opacity:1;"
         offset="0"
         id="stop5483" />
      <stop
         id="stop5491"
         offset="0.52777779"
         style="stop-color:#f47712;stop-opacity:1;" />
      <stop
         style="stop-color:#f8bb8a;stop-opacity:1;"
         offset="1"
         id="stop5485" />
    </linearGradient>
    <inkscape:perspective
       sodipodi:type="inkscape:persp3d"
       inkscape:vp_x="-108.10967 : 516.24314 : 1"
       inkscape:vp_y="0 : 323.31882 : 0"
       inkscape:vp_z="57.429562 : 516.24314 : 1"
       inkscape:persp3d-origin="-25.340056 : 488.65327 : 1"
       id="perspective18342" />
    <marker
       inkscape:stockid="Arrow2Send"
       orient="auto"
       refY="0.0"
       refX="0.0"
       id="Arrow2Send"
       style="overflow:visible;">
      <path
         id="path17173"
         style="fill-rule:evenodd;stroke-width:0.62500000;stroke-linejoin:round;"
         d="M 8.7185878,4.0337352 L -2.2072895,0.016013256 L 8.7185884,-4.0017078 C 6.9730900,-1.6296469 6.9831476,1.6157441 8.7185878,4.0337352 z "
         transform="scale(0.3) rotate(180) translate(-2.3,0)" />
    </marker>
    <marker
       inkscape:stockid="Arrow2Mend"
       orient="auto"
       refY="0.0"
       refX="0.0"
       id="Arrow2Mend"
       style="overflow:visible;">
      <path
         id="path17167"
         style="fill-rule:evenodd;stroke-width:0.62500000;stroke-linejoin:round;"
         d="M 8.7185878,4.0337352 L -2.2072895,0.016013256 L 8.7185884,-4.0017078 C 6.9730900,-1.6296469 6.9831476,1.6157441 8.7185878,4.0337352 z "
         transform="scale(0.6) rotate(180) translate(0,0)" />
    </marker>
    <marker
       inkscape:stockid="Arrow1Send"
       orient="auto"
       refY="0.0"
       refX="0.0"
       id="Arrow1Send"
       style="overflow:visible;">
      <path
         id="path17155"
         d="M 0.0,0.0 L 5.0,-5.0 L -12.5,0.0 L 5.0,5.0 L 0.0,0.0 z "
         style="fill-rule:evenodd;stroke:#000000;stroke-width:1.0pt;"
         transform="scale(0.2) rotate(180) translate(6,0)" />
    </marker>
    <marker
       inkscape:stockid="Arrow2Lend"
       orient="auto"
       refY="0.0"
       refX="0.0"
       id="Arrow2Lend"
       style="overflow:visible;">
      <path
         id="path17161"
         style="fill-rule:evenodd;stroke-width:0.62500000;stroke-linejoin:round;"
         d="M 8.7185878,4.0337352 L -2.2072895,0.016013256 L 8.7185884,-4.0017078 C 6.9730900,-1.6296469 6.9831476,1.6157441 8.7185878,4.0337352 z "
         transform="scale(1.1) rotate(180) translate(1,0)" />
    </marker>
    <linearGradient
       id="linearGradient17126">
      <stop
         style="stop-color:#008080;stop-opacity:1;"
         offset="0"
         id="stop17128" />
      <stop
         style="stop-color:#00b3b3;stop-opacity:1;"
         offset="1"
         id="stop17130" />
    </linearGradient>
    <linearGradient
       id="linearGradient17116">
      <stop
         style="stop-color:#b3a500;stop-opacity:1;"
         offset="0"
         id="stop17118" />
      <stop
         style="stop-color:#eaa500;stop-opacity:1;"
         offset="1"
         id="stop17120" />
    </linearGradient>
    <marker
       inkscape:stockid="Arrow2Send"
       orient="auto"
       refY="0"
       refX="0"
       id="Arrow2Send-2"
       style="overflow:visible">
      <path
         inkscape:connector-curvature="0"
         id="path17173-2"
         style="fill-rule:evenodd;stroke-width:0.625;stroke-linejoin:round"
         d="M 8.7185878,4.0337352 -2.2072895,0.01601326 8.7185884,-4.0017078 c -1.7454984,2.3720609 -1.7354408,5.6174519 -6e-7,8.035443 z"
         transform="matrix(-0.3,0,0,-0.3,0.69,0)" />
    </marker>
    <marker
       inkscape:stockid="Arrow2Send"
       orient="auto"
       refY="0"
       refX="0"
       id="Arrow2Send-6"
       style="overflow:visible">
      <path
         inkscape:connector-curvature="0"
         id="path17173-8"
         style="fill-rule:evenodd;stroke-width:0.625;stroke-linejoin:round"
         d="M 8.7185878,4.0337352 -2.2072895,0.01601326 8.7185884,-4.0017078 c -1.7454984,2.3720609 -1.7354408,5.6174519 -6e-7,8.035443 z"
         transform="matrix(-0.3,0,0,-0.3,0.69,0)" />
    </marker>
    <marker
       inkscape:stockid="Arrow2Send"
       orient="auto"
       refY="0"
       refX="0"
       id="Arrow2Send-7"
       style="overflow:visible">
      <path
         inkscape:connector-curvature="0"
         id="path17173-6"
         style="fill-rule:evenodd;stroke-width:0.625;stroke-linejoin:round"
         d="M 8.7185878,4.0337352 -2.2072895,0.01601326 8.7185884,-4.0017078 c -1.7454984,2.3720609 -1.7354408,5.6174519 -6e-7,8.035443 z"
         transform="matrix(-0.3,0,0,-0.3,0.69,0)" />
    </marker>
    <marker
       inkscape:stockid="Arrow2Send"
       orient="auto"
       refY="0"
       refX="0"
       id="Arrow2Send-8"
       style="overflow:visible">
      <path
         inkscape:connector-curvature="0"
         id="path17173-9"
         style="fill-rule:evenodd;stroke-width:0.625;stroke-linejoin:round"
         d="M 8.7185878,4.0337352 -2.2072895,0.01601326 8.7185884,-4.0017078 c -1.7454984,2.3720609 -1.7354408,5.6174519 -6e-7,8.035443 z"
         transform="matrix(-0.3,0,0,-0.3,0.69,0)" />
    </marker>
    <marker
       inkscape:stockid="Arrow2Send"
       orient="auto"
       refY="0"
       refX="0"
       id="Arrow2Send-79"
       style="overflow:visible">
      <path
         inkscape:connector-curvature="0"
         id="path17173-5"
         style="fill-rule:evenodd;stroke-width:0.625;stroke-linejoin:round"
         d="M 8.7185878,4.0337352 -2.2072895,0.01601326 8.7185884,-4.0017078 c -1.7454984,2.3720609 -1.7354408,5.6174519 -6e-7,8.035443 z"
         transform="matrix(-0.3,0,0,-0.3,0.69,0)" />
    </marker>
    <marker
       inkscape:stockid="Arrow2Send"
       orient="auto"
       refY="0"
       refX="0"
       id="Arrow2Send-3"
       style="overflow:visible">
      <path
         inkscape:connector-curvature="0"
         id="path17173-1"
         style="fill-rule:evenodd;stroke-width:0.625;stroke-linejoin:round"
         d="M 8.7185878,4.0337352 -2.2072895,0.01601326 8.7185884,-4.0017078 c -1.7454984,2.3720609 -1.7354408,5.6174519 -6e-7,8.035443 z"
         transform="matrix(-0.3,0,0,-0.3,0.69,0)" />
    </marker>
    <marker
       inkscape:stockid="Arrow2Send"
       orient="auto"
       refY="0"
       refX="0"
       id="Arrow2Send-33"
       style="overflow:visible">
      <path
         inkscape:connector-curvature="0"
         id="path17173-4"
         style="fill-rule:evenodd;stroke-width:0.625;stroke-linejoin:round"
         d="M 8.7185878,4.0337352 -2.2072895,0.01601326 8.7185884,-4.0017078 c -1.7454984,2.3720609 -1.7354408,5.6174519 -6e-7,8.035443 z"
         transform="matrix(-0.3,0,0,-0.3,0.69,0)" />
    </marker>
    <marker
       inkscape:stockid="Arrow2Send"
       orient="auto"
       refY="0"
       refX="0"
       id="Arrow2Send-1"
       style="overflow:visible">
      <path
         inkscape:connector-curvature="0"
         id="path17173-3"
         style="fill-rule:evenodd;stroke-width:0.625;stroke-linejoin:round"
         d="M 8.7185878,4.0337352 -2.2072895,0.01601326 8.7185884,-4.0017078 c -1.7454984,2.3720609 -1.7354408,5.6174519 -6e-7,8.035443 z"
         transform="matrix(-0.3,0,0,-0.3,0.69,0)" />
    </marker>
    <linearGradient
       inkscape:collect="always"
       xlink:href="#linearGradient5481-5"
       id="linearGradient5489-4"
       x1="355.89935"
       y1="17.125025"
       x2="380.47559"
       y2="17.125025"
       gradientUnits="userSpaceOnUse" />
    <linearGradient
       id="linearGradient5481-5">
      <stop
         style="stop-color:#e66700;stop-opacity:1;"
         offset="0"
         id="stop5483-2" />
      <stop
         id="stop5491-9"
         offset="0.52777779"
         style="stop-color:#f47712;stop-opacity:1;" />
      <stop
         style="stop-color:#f8bb8a;stop-opacity:1;"
         offset="1"
         id="stop5485-9" />
    </linearGradient>
    <linearGradient
       y2="17.125025"
       x2="380.47559"
       y1="17.125025"
       x1="355.89935"
       gradientUnits="userSpaceOnUse"
       id="linearGradient5588"
       xlink:href="#linearGradient5609"
       inkscape:collect="always" />
    <inkscape:path-effect
       effect="spiro"
       id="path-effect4108-1"
       is_visible="true" />
    <inkscape:path-effect
       effect="spiro"
       id="path-effect4108-4"
       is_visible="true" />
    <inkscape:path-effect
       effect="spiro"
       id="path-effect4108-9"
       is_visible="true" />
  </defs>
  <sodipodi:namedview
     id="base"
     pagecolor="#8a8a8a"
     bordercolor="#666666"
     borderopacity="1.0"
     inkscape:pageopacity="0"
     inkscape:pageshadow="2"
     inkscape:zoom="5.7103528"
     inkscape:cx="200.36008"
     inkscape:cy="454.81295"
     inkscape:document-units="px"
     inkscape:current-layer="layer1"
     showgrid="true"
     inkscape:window-width="1366"
     inkscape:window-height="663"
     inkscape:window-x="-8"
     inkscape:window-y="-8"
     inkscape:window-maximized="1"
     inkscape:snap-global="false">
    <inkscape:grid
       type="xygrid"
       id="grid16107"
       empspacing="1"
       visible="true"
       enabled="true"
       snapvisiblegridlinesonly="false"
       spacingx="32px"
       spacingy="32px"
       dotted="false" />
  </sodipodi:namedview>
  <metadata
     id="metadata16104">
    <rdf:RDF>
      <cc:Work
         rdf:about="">
        <dc:format>image/svg+xml</dc:format>
        <dc:type
           rdf:resource="http://purl.org/dc/dcmitype/StillImage" />
        <dc:title />
      </cc:Work>
    </rdf:RDF>
  </metadata>
  <g
     inkscape:label="Layer 1"
     inkscape:groupmode="layer"
     id="layer1"
     transform="translate(0,-540.36218)">
    <path
       style="fill:none;stroke:#000000;stroke-width:4;stroke-linecap:butt;stroke-linejoin:miter;stroke-miterlimit:4;stroke-opacity:1;stroke-dasharray:none;marker-mid:none;marker-end:none"
       d="m 68.019237,550.72306 c 2.84767,-5.29374 10.57967,-10.09255 18.94237,-3.30942"
       id="path4144"
       inkscape:connector-curvature="0"
       sodipodi:nodetypes="cc" />
    <path
       style="fill:#000000;fill-opacity:1;stroke:none"
       d="m 85.404507,549.07169 -1.66578,2.44281 10.54986,1.50392 -4.7775,-9.67606 z"
       id="path5370"
       inkscape:connector-curvature="0" />
    <path
       style="fill:none;stroke:#000000;stroke-width:4;stroke-linecap:butt;stroke-linejoin:miter;stroke-miterlimit:4;stroke-opacity:1;stroke-dasharray:none;marker-mid:none;marker-end:none"
       d="m 91.577527,559.86619 c -2.99996,5.20895 -10.86785,9.78156 -19.03036,2.75881"
       id="path4144-0"
       inkscape:connector-curvature="0"
       sodipodi:nodetypes="cc" />
    <path
       style="fill:#000000;fill-opacity:1;stroke:none"
       d="m 74.151687,561.01279 1.73591,-2.39348 -10.50182,-1.80918 4.49494,9.81052 z"
       id="path5370-2"
       inkscape:connector-curvature="0" />
    <path
       style="fill:#000000;fill-opacity:1;stroke:none"
       d="m 53.697059,558.13787 0.0071,2.9567 9.5522,-4.72406 -9.411205,-5.28014 z"
       id="path5370-5"
       inkscape:connector-curvature="0" />
    <path
       style="fill:#000000;fill-opacity:1;stroke:none"
       d="m 42.788327,554.10866 -0.05871,-2.95612 -9.468276,4.89009 9.501946,5.11504 z"
       id="path5370-5-0"
       inkscape:connector-curvature="0" />
    <path
       style="fill:#000000;fill-opacity:1;stroke:none"
       d="m 50.178997,550.228 2.956057,-0.0621 -4.900788,-9.46274 -5.104304,9.50772 z"
       id="path5370-5-9"
       inkscape:connector-curvature="0" />
    <path
       style="fill:#000000;fill-opacity:1;stroke:none"
       d="m 46.079364,562.35657 -2.956501,0.035 4.813936,9.50722 5.191149,-9.46057 z"
       id="path5370-5-00"
       inkscape:connector-curvature="0" />
    <path
       style="fill:#000000;fill-opacity:1;stroke:none"
       d="m 25.777759,554.49212 -0.05871,-2.95612 -9.468276,4.89009 9.501946,5.11504 z"
       id="path5370-5-0-6"
       inkscape:connector-curvature="0" />
    <path
       style="fill:#000000;fill-opacity:1;stroke:none"
       d="m 6.5118986,558.05364 0.0071,2.9567 9.5522004,-4.72406 -9.4112054,-5.28014 z"
       id="path5370-5-1"
       inkscape:connector-curvature="0" />
    <rect
       style="opacity:0.94690265;fill:#000000;fill-opacity:1;stroke:none"
       id="rect5558"
       width="6.875"
       height="3.6336102"
       x="-13.828577"
       y="556.05951"
       transform="matrix(1,0,0.06880209,0.99763033,0,0)" />
    <rect
       style="opacity:0.94690265;fill:#000000;fill-opacity:1;stroke:none"
       id="rect5558-3"
       width="6.875"
       height="3.6336102"
       x="-37.485905"
       y="555.62097"
       transform="matrix(1,0,0.06880209,0.99763033,0,0)" />
    <rect
       style="opacity:0.94690265;fill:#000000;fill-opacity:1;stroke:none"
       id="rect5558-8"
       width="3.1359651"
       height="3.6267929"
       x="24.149031"
       y="554.57391"
       transform="matrix(1,0,0.0314424,0.99950557,0,0)" />
    <rect
       style="opacity:0.94690265;fill:#000000;fill-opacity:1;stroke:none"
       id="rect5558-8-9"
       width="3.1359651"
       height="3.6267929"
       x="34.541039"
       y="554.57391"
       transform="matrix(1,0,0.0314424,0.99950557,0,0)" />
    <rect
       style="opacity:0.94690265;fill:#000000;fill-opacity:1;stroke:none"
       id="rect5558-8-3"
       width="3.1359651"
       height="3.6267929"
       x="549.09521"
       y="-70.565575"
       transform="matrix(-0.03753503,0.99929531,-0.99998142,-0.00609623,0,0)"
       inkscape:transform-center-x="1.872217"
       inkscape:transform-center-y="1.5779325" />
    <rect
       style="opacity:0.94690265;fill:#000000;fill-opacity:1;stroke:none"
       id="rect5558-8-3-4"
       width="3.1359651"
       height="3.6267929"
       x="560.34814"
       y="-70.951332"
       transform="matrix(-0.03753503,0.99929531,-0.99998142,-0.00609623,0,0)"
       inkscape:transform-center-x="1.872217"
       inkscape:transform-center-y="1.5779325" />
    <path
       sodipodi:type="arc"
       style="opacity:0.79203539;fill:url(#linearGradient5588);fill-opacity:1;stroke:#3c3c3c;stroke-width:0.95125914;stroke-linecap:round;stroke-linejoin:miter;stroke-miterlimit:4;stroke-opacity:1;stroke-dasharray:none;stroke-dashoffset:0"
       id="path3171-8"
       sodipodi:cx="368.18747"
       sodipodi:cy="17.125025"
       sodipodi:rx="11.812499"
       sodipodi:ry="11.999999"
       d="m 379.99997,17.125025 a 11.812499,11.999999 0 1 1 -23.625,0 11.812499,11.999999 0 1 1 23.625,0 z"
       transform="matrix(1.2151103,0,0,1.1804992,-334.97938,536.60604)" />
    <flowRoot
       xml:space="preserve"
       id="flowRoot5564"
       style="font-size:40px;font-style:normal;font-weight:normal;line-height:125%;letter-spacing:0px;word-spacing:0px;fill:#000000;fill-opacity:1;stroke:none;font-family:Sans"
       transform="matrix(0.64571833,0,0,0.61432912,-119.21496,558.34431)"><flowRegion
         id="flowRegion5566"><rect
           id="rect5568"
           width="78.749992"
           height="72.5"
           x="346.24997"
           y="-21.999973" /></flowRegion><flowPara
         id="flowPara5570"
         style="font-weight:bold;-inkscape-font-specification:Sans Bold">?</flowPara></flowRoot>    <path
       style="fill:none;stroke:#ec6900;stroke-width:4.44463539;stroke-linecap:butt;stroke-linejoin:miter;stroke-miterlimit:4;stroke-opacity:1;stroke-dasharray:none;marker-mid:none;marker-end:none"
       d="m 154.93163,557.52777 c -3.71166,-5.87882 -12.04056,-10.0009 -18.86169,0.34701"
       id="path4144-1"
       inkscape:connector-curvature="0"
       sodipodi:nodetypes="cc" />
    <path
       style="fill:#ec6900;fill-opacity:1;stroke:none"
       d="m 137.69847,559.03483 2.05175,2.63036 -9.89352,4.33226 2.83717,-13.08504 z"
       id="path5370-7"
       inkscape:connector-curvature="0" />
    <path
       style="fill:none;stroke:#1f9000;stroke-width:4.43457985;stroke-linecap:butt;stroke-linejoin:miter;stroke-miterlimit:4;stroke-opacity:1;stroke-dasharray:none;marker-mid:none;marker-end:none"
       d="m 164.49331,557.71527 c 3.69186,-5.88365 11.97631,-10.00911 18.76103,0.3473"
       id="path4144-1-9"
       inkscape:connector-curvature="0"
       sodipodi:nodetypes="cc" />
    <path
       style="fill:#1f9000;fill-opacity:1;stroke:none"
       d="m 181.63451,559.22357 -2.0408,2.63252 9.84072,4.33582 -2.82203,-13.09579 z"
       id="path5370-7-4"
       inkscape:connector-curvature="0" />
    <path
       sodipodi:type="arc"
       style="opacity:0.77876108;fill:none;stroke:#000000;stroke-width:0.89606291;stroke-linecap:butt;stroke-linejoin:miter;stroke-miterlimit:4;stroke-opacity:1;stroke-dasharray:2.68818866, 2.68818866;stroke-dashoffset:0"
       id="path4315"
       sodipodi:cx="207.78493"
       sodipodi:cy="52.594711"
       sodipodi:rx="12.878207"
       sodipodi:ry="12.878207"
       d="m 220.66313,52.594711 a 12.878207,12.878207 0 1 1 -25.75641,0 12.878207,12.878207 0 1 1 25.75641,0 z"
       transform="matrix(1.1159931,0,0,1.1159931,-23.234811,497.73202)" />
    <rect
       style="fill:#000000;fill-opacity:1;stroke:none"
       id="rect3224"
       width="23.641272"
       height="8.4057856"
       x="233.02534"
       y="551.54413" />
    <path
       style="fill:none;stroke:#000000;stroke-width:5;stroke-linecap:butt;stroke-linejoin:miter;stroke-miterlimit:4;stroke-opacity:1;stroke-dasharray:none"
       d="M 243.4678,566.94003 230.06297,555.33229 244.21838,544.9042"
       id="path4074"
       inkscape:connector-curvature="0"
       sodipodi:nodetypes="ccc" />
    <path
       style="fill:#000000;fill-opacity:1;stroke:none"
       d="m 274.31933,553.25267 -0.09,-4.53232 -14.51675,7.49748 14.56837,7.84238 z"
       id="path5370-5-0-6-5"
       inkscape:connector-curvature="0" />
    <path
       style="fill:#000000;fill-opacity:1;stroke:none"
       d="m 302.81975,559.74106 0.0109,4.6129 14.90287,-7.37024 -14.68289,-8.23782 z"
       id="path5370-5-1-2"
       inkscape:connector-curvature="0" />
    <rect
       style="opacity:0.94690265;fill:#000000;fill-opacity:1;stroke:none"
       id="rect5558-3-3"
       width="10.726034"
       height="5.6689787"
       x="255.61839"
       y="555.2074"
       transform="matrix(1,0,0.06880209,0.99763033,0,0)" />
    <rect
       style="opacity:0.94690265;fill:#000000;fill-opacity:1;stroke:none"
       id="rect5558-1"
       width="10.540748"
       height="5.5710502"
       x="235.76176"
       y="555.28046"
       transform="matrix(1,0,0.06880209,0.99763033,0,0)" />
    <path
       style="fill:#000000;fill-opacity:1;stroke:none"
       d="m 322.1757,563.37698 0.0216,9.15095 29.5639,-14.62088 -29.12752,-16.34197 z"
       id="path5370-5-1-2-1"
       inkscape:connector-curvature="0" />
    <path
       style="fill:#000000;fill-opacity:1;stroke:none"
       d="m 363.42837,541.86434 -9.14936,0.17181 15.10419,29.31992 15.86165,-29.39185 z"
       id="path5370-5-1-2-1-7"
       inkscape:connector-curvature="0" />
    <text
       xml:space="preserve"
       style="font-size:29.42264557px;font-style:normal;font-weight:normal;line-height:125%;letter-spacing:0px;word-spacing:0px;fill:#000000;fill-opacity:1;stroke:none;font-family:Sans"
       x="389.29883"
       y="569.09045"
       id="text3266"
       sodipodi:linespacing="125%"
       transform="scale(1.004874,0.99514964)"><tspan
         sodipodi:role="line"
         id="tspan3268"
         x="389.29883"
         y="569.09045">S</tspan></text>
    <path
       sodipodi:type="arc"
       style="fill:none;stroke:#ff0000;stroke-width:3.35765696;stroke-miterlimit:4;stroke-opacity:1;stroke-dasharray:none"
       id="path3270"
       sodipodi:cx="401.46384"
       sodipodi:cy="52.221031"
       sodipodi:rx="16.548891"
       sodipodi:ry="16.548891"
       d="m 418.01273,52.221031 a 16.548891,16.548891 0 1 1 -33.09778,0 16.548891,16.548891 0 1 1 33.09778,0 z"
       transform="matrix(0.83227284,0,0,0.82916141,66.842313,512.8661)" />
    <path
       style="fill:none;stroke:#ff0000;stroke-width:3;stroke-linecap:butt;stroke-linejoin:miter;stroke-miterlimit:4;stroke-opacity:1;stroke-dasharray:none"
       d="m 407.97076,543.48856 -13.13405,25.5676"
       id="path4112"
       inkscape:connector-curvature="0"
       sodipodi:nodetypes="cc" />
    <path
       style="fill:#ebebeb;fill-opacity:1;stroke:none"
       d="m 423.79193,553.81874 9.04081,9.07553 9.32782,-9.19121 0.21652,-6.39191 -9.45985,9.1375 -9.08664,-9.15104 z"
       id="path3236"
       inkscape:connector-curvature="0"
       sodipodi:nodetypes="ccccccc" />
    <text
       xml:space="preserve"
       style="font-size:30.09177399px;font-style:normal;font-variant:normal;font-weight:normal;font-stretch:normal;line-height:125%;letter-spacing:0px;word-spacing:0px;fill:#ffdc00;fill-opacity:1;stroke:none;font-family:MV Boli;-inkscape-font-specification:MV Boli"
       x="369.323"
       y="649.10553"
       id="text3255"
       sodipodi:linespacing="125%"
       transform="matrix(0.98233783,-0.18711597,0.18711597,0.98233783,0,0)"><tspan
         sodipodi:role="line"
         id="tspan3257"
         x="369.323"
         y="649.10553">!</tspan></text>
    <path
       style="fill:#000000;fill-opacity:1;stroke:#363636;stroke-width:2.23946524;stroke-linecap:round;stroke-linejoin:miter;stroke-miterlimit:4;stroke-opacity:1;stroke-dasharray:none"
       d="m 5.2583847,602.25574 5.6044903,-5.39601"
       id="path5452-5-5-1-7"
       inkscape:connector-curvature="0"
       sodipodi:nodetypes="cc"
       inkscape:transform-center-x="3.061478"
       inkscape:transform-center-y="-0.63275351" />
    <path
       style="fill:#000000;fill-opacity:1;stroke:#363636;stroke-width:2.23946524;stroke-linecap:round;stroke-linejoin:miter;stroke-miterlimit:4;stroke-opacity:1;stroke-dasharray:none"
       d="M 10.660865,602.17063 5.1898947,596.63929"
       id="path5452-5-5-1-7-4"
       inkscape:connector-curvature="0"
       sodipodi:nodetypes="cc"
       inkscape:transform-center-x="3.196728"
       inkscape:transform-center-y="-0.78552851" />
    <path
       style="fill:#ebebeb;fill-opacity:1;stroke:none"
       d="m 474.9827,553.74023 -9.16852,-8.94649 -9.19663,9.32247 -0.12592,6.39434 9.32941,-9.27064 9.21541,9.02135 z"
       id="path3236-8"
       inkscape:connector-curvature="0"
       sodipodi:nodetypes="ccccccc" />
    <path
       style="fill:#ffe87e;fill-opacity:1;stroke:#a58000;stroke-width:1.02573335px;stroke-linecap:butt;stroke-linejoin:miter;stroke-opacity:1"
       d="m 36.512525,599.08328 -0.0847,-15.30469 14.76623,-0.079 1.13455,-5.3121 6.7663,0 0.52197,5.56549 2.38874,0 -0.0349,15.41642 -25.45819,-0.28612"
       id="path4607"
       inkscape:path-effect="#path-effect4609"
       inkscape:original-d="m 36.512525,599.08328 -0.0847,-15.30469 14.76623,-0.079 1.13455,-5.3121 6.7663,0 0.52197,5.56549 2.38874,0 -0.0349,15.41642 z"
       inkscape:connector-curvature="0"
       sodipodi:nodetypes="ccccccccc" />
    <path
       style="fill:#dfc449;fill-opacity:1;stroke:#a58000;stroke-width:1.04236829px;stroke-linecap:butt;stroke-linejoin:miter;stroke-opacity:1"
       d="m 38.651325,583.64804 2.27904,-5.34039 8.11475,0.19058 1.53729,4.93611 -11.93108,0.2137"
       id="path5463"
       inkscape:path-effect="#path-effect5465"
       inkscape:original-d="m 38.651325,583.64804 2.27904,-5.34039 8.11475,0.19058 1.53729,4.93611 z"
       inkscape:connector-curvature="0"
       sodipodi:nodetypes="ccccc" />
    <path
       style="fill:#d7f0fb;fill-opacity:1;stroke:#858585;stroke-width:1px;stroke-linecap:butt;stroke-linejoin:miter;stroke-opacity:1"
       d="m 71.789265,599.90744 0.17512,-24.69199 15.41061,0 4.378,4.90337 0.17513,19.96374 -20.13886,-0.17512"
       id="path3262"
       inkscape:path-effect="#path-effect3264"
       inkscape:original-d="m 71.789265,599.90744 0.17512,-24.69199 15.41061,0 4.378,4.90337 0.17513,19.96374 z"
       inkscape:connector-curvature="0"
       sodipodi:nodetypes="cccccc" />
    <path
       style="fill:none;stroke:#ffffff;stroke-width:1px;stroke-linecap:butt;stroke-linejoin:miter;stroke-opacity:1"
       d="m 73.190225,596.58015 16.81157,-0.35024"
       id="path4106"
       inkscape:path-effect="#path-effect4108"
       inkscape:original-d="m 73.190225,596.58015 16.81157,-0.35024"
       inkscape:connector-curvature="0" />
    <path
       style="fill:none;stroke:#ffffff;stroke-width:1px;stroke-linecap:butt;stroke-linejoin:miter;stroke-opacity:1"
       d="m 73.540465,591.50166 16.81157,-0.35024"
       id="path4106-7"
       inkscape:path-effect="#path-effect4108-1"
       inkscape:original-d="m 73.540465,591.50166 16.81157,-0.35024"
       inkscape:connector-curvature="0" />
    <path
       style="fill:none;stroke:#ffffff;stroke-width:1px;stroke-linecap:butt;stroke-linejoin:miter;stroke-opacity:1"
       d="m 73.365345,586.59829 16.81157,-0.35024"
       id="path4106-0"
       inkscape:path-effect="#path-effect4108-4"
       inkscape:original-d="m 73.365345,586.59829 16.81157,-0.35024"
       inkscape:connector-curvature="0" />
    <path
       style="fill:none;stroke:#ffffff;stroke-width:1px;stroke-linecap:butt;stroke-linejoin:miter;stroke-opacity:1"
       d="m 73.365345,582.22027 16.81157,-0.35024"
       id="path4106-4"
       inkscape:path-effect="#path-effect4108-9"
       inkscape:original-d="m 73.365345,582.22027 16.81157,-0.35024"
       inkscape:connector-curvature="0" />
    <path
       style="fill:#ffffff;fill-opacity:1;stroke:#f1f1f1;stroke-width:5.94551659;stroke-linecap:round;stroke-linejoin:miter;stroke-miterlimit:4;stroke-opacity:1;stroke-dasharray:none"
       d="m 100.86564,588.75389 20.65464,0.0801"
       id="path5452-5-5-1-7-7"
       inkscape:connector-curvature="0"
       sodipodi:nodetypes="cc"
       inkscape:transform-center-x="4.6633677"
       inkscape:transform-center-y="-6.8657224" />
    <path
       style="fill:#ffffff;fill-opacity:1;stroke:#f4f4f4;stroke-width:5.94551659;stroke-linecap:round;stroke-linejoin:miter;stroke-miterlimit:4;stroke-opacity:1;stroke-dasharray:none"
       d="m 111.31659,598.57981 -0.19774,-20.6539"
       id="path5452-5-5-1-7-4-4"
       inkscape:connector-curvature="0"
       sodipodi:nodetypes="cc"
       inkscape:transform-center-x="4.6386077"
       inkscape:transform-center-y="-7.4068024" />
    <path
       style="fill:#ffffff;fill-opacity:1;stroke:#f1f1f1;stroke-width:5.94551659;stroke-linecap:round;stroke-linejoin:miter;stroke-miterlimit:4;stroke-opacity:1;stroke-dasharray:none"
       d="m 134.83744,588.85052 20.65463,0.0801"
       id="path5452-5-5-1-7-7-1"
       inkscape:connector-curvature="0"
       sodipodi:nodetypes="cc"
       inkscape:transform-center-x="4.6633677"
       inkscape:transform-center-y="-6.8657224" />
    <rect
       style="fill:none;fill-opacity:1;stroke:#ffffff;stroke-opacity:1"
       id="rect4404"
       width="6.6545801"
       height="5.9540982"
       x="163.7377"
       y="576.55969" />
    <rect
       style="fill:none;fill-opacity:1;stroke:#ffffff;stroke-opacity:1"
       id="rect4404-9"
       width="6.6545801"
       height="5.9540982"
       x="180.19902"
       y="594.59711" />
    <path
       style="fill:none;stroke:#ffffff;stroke-width:1;stroke-linecap:butt;stroke-linejoin:miter;stroke-opacity:1;stroke-miterlimit:4;stroke-dasharray:2,2;stroke-dashoffset:0"
       d="m 167.2401,38.999453 16.81158,18.037414"
       id="path5004"
       inkscape:connector-curvature="0"
       transform="translate(0,540.36218)" />
    <path
       style="fill:#ffffff;stroke:none;stroke-width:1px;stroke-linecap:butt;stroke-linejoin:miter;stroke-opacity:1;fill-opacity:1"
       d="m 204.89103,581.81332 c 1.37931,-0.76575 2.47143,-1.94907 3.5278,-3.1208 1.05637,-1.17172 2.12473,-2.37101 3.47701,-3.18354 1.05509,-0.63396 2.27021,-1.01307 3.50092,-1.03499 1.2307,-0.0219 2.4737,0.32084 3.48877,1.01708 1.01507,0.69625 1.79068,1.75014 2.10095,2.94129 0.31028,1.19115 0.13962,2.51039 -0.50973,3.55608 -0.64859,1.04445 -1.70411,1.75661 -2.72534,2.44119 -1.02122,0.68457 -2.07224,1.40712 -2.7034,2.46219 -0.58181,0.97258 -0.74919,2.14335 -0.71937,3.27628 0.0298,1.13293 0.24329,2.25198 0.36913,3.3783 0.13285,1.18913 0.16725,2.39959 -0.0506,3.57613 -0.21783,1.17653 -0.70023,2.32277 -1.50543,3.20784 -0.8052,0.88506 -1.95189,1.48777 -3.14825,1.50781 -0.59818,0.01 -1.20054,-0.12496 -1.7287,-0.40598 -0.52815,-0.28102 -0.9798,-0.70935 -1.27233,-1.23122 -0.35512,-0.63354 -0.46688,-1.37914 -0.4502,-2.10524 0.0167,-0.72609 0.15462,-1.44305 0.2698,-2.16014 0.11518,-0.71709 0.20811,-1.44577 0.13414,-2.16827 -0.074,-0.72251 -0.32852,-1.44614 -0.82934,-1.97214 -0.30555,-0.32091 -0.69365,-0.55845 -1.11035,-0.70913 -0.4167,-0.15069 -0.8616,-0.2162 -1.3047,-0.21828 -0.88621,-0.004 -1.75377,0.24077 -2.59556,0.51783 -0.8418,0.27707 -1.6781,0.58986 -2.55327,0.72934 -0.87518,0.13949 -1.80886,0.0929 -2.59311,-0.31976 -0.66935,-0.35225 -1.19287,-0.95996 -1.47834,-1.66041 -0.28546,-0.70044 -0.33761,-1.48778 -0.18545,-2.2287 0.15216,-0.74091 0.50384,-1.43506 0.98078,-2.02212 0.47693,-0.58707 1.07682,-1.06889 1.73373,-1.44383 1.20679,-0.68878 2.58171,-1.01301 3.93577,-1.32487 1.35407,-0.31186 2.7298,-0.62749 3.94466,-1.30194"
       id="path5010"
       inkscape:path-effect="#path-effect5012"
       inkscape:original-d="m 204.89103,581.81332 c 1.69936,-1.59489 1.75119,-4.55313 7.00481,-6.30434 5.25362,-1.7512 8.23067,1.92633 8.58091,6.47946 0.35024,4.55313 -3.15217,2.62681 -5.42874,4.90338 -2.27656,2.27656 -3.50241,2.6268 -0.35024,6.65458 3.15217,4.02777 -2.80193,7.17994 -7.7053,6.65458 -4.90338,-0.52537 -3.15217,-5.0785 -0.8756,-8.40579 2.27656,-3.32729 -6.47946,0.35024 -10.15699,0 -3.67754,-0.35024 -2.45169,-6.65458 1.05072,-7.35506 3.50241,-0.70048 5.86144,-0.73195 7.88043,-2.62681 z"
       inkscape:connector-curvature="0"
       sodipodi:nodetypes="ssssssssss" />
  </g>
</svg>
